<?xml version="1.0" encoding="utf-8"?><svg xml:space="preserve" viewBox="0 0 100 100" y="0" x="0" xmlns="http://www.w3.org/2000/svg" id="圖層_1" version="1.1" width="200px" height="200px" xmlns:xlink="http://www.w3.org/1999/xlink" style="width:100%;height:100%;background-size:initial;background-repeat-y:initial;background-repeat-x:initial;background-position-y:initial;background-position-x:initial;background-origin:initial;background-color:initial;background-clip:initial;background-attachment:initial;animation-play-state:paused" ><g class="ldl-scale" style="transform-origin:50% 50%;transform:rotate(0deg) scale(0.8, 0.8);animation-play-state:paused" ><circle fill="#abbd81" r="14" cy="50" cx="50" style="fill:rgba(39, 38, 38, 0);animation-play-state:paused" ></circle>
<path fill="#f5e6c8" d="M76.135 64.22c-4.926-.595-12.812 1.923-15.245 2.59-2.433.667-9.944 5.102-11.377 5.808-1.433.706-3.78.752-4.72.638-.939-.114-1.864-.305-3.253-.396-.584 1.238.249 3.79 1.434 4.763s3.523 1.297 4.562 1.407c1.671.176 3.742-.102 4.89-.315 1.504-.279 3.672-.961 4.226-.79.555.171.796.651.151 1.262-.645.61-3.597 4.13-5.049 4.991-1.62.96-5.632 1.067-7.924.663a86.4 86.4 0 0 1-2.728-.537c-.733-.984-2.191-2.906-2.821-3.508-.858-.82-3.128-2.473-4.048-2.836-.92-.363-2.002-.459-3.297.651.53.875 1.945 2.594 3.165 4.005-1.336-.184-2.868-.233-3.708-.094-1.281.213-2.645 1.016-2.645 1.016s-.788.577-1.466 1.387c-.546.652-.274 1.646.539 1.897 4.684 1.448 16.093 4.945 19.626 5.374 3.969.481 6.497.383 8.912-.222 2.414-.606 18.879-12.406 18.879-12.406s1.884-1.512 3.473-1.629 10.228 2.752 10.228 2.752l-.989-13.846s-5.804-2.019-10.815-2.625z" style="fill:rgb(255, 255, 255);animation-play-state:paused" ></path>
<path fill="#f5e6c8" d="M23.865 35.78c4.926.595 12.812-1.923 15.245-2.59 2.433-.667 9.944-5.102 11.377-5.808s3.78-.752 4.72-.638c.939.114 1.864.305 3.253.396.584-1.238-.249-3.79-1.434-4.763-1.185-.973-3.523-1.297-4.562-1.407-1.671-.176-3.742.102-4.89.315-1.504.279-3.672.961-4.226.79-.555-.171-.796-.651-.151-1.262.645-.61 3.597-4.13 5.049-4.991 1.62-.96 5.632-1.067 7.924-.663a86.4 86.4 0 0 1 2.728.537c.733.984 2.191 2.906 2.821 3.508.858.82 3.128 2.473 4.048 2.836.92.363 2.002.459 3.297-.651-.53-.875-1.945-2.594-3.165-4.005 1.336.184 2.868.233 3.708.094 1.281-.213 2.645-1.016 2.645-1.016s.788-.577 1.466-1.387c.546-.652.274-1.646-.539-1.897-4.684-1.448-16.093-4.945-19.626-5.374-3.969-.481-6.497-.383-8.912.222-2.414.606-18.879 12.406-18.879 12.406s-1.884 1.512-3.473 1.629c-1.589.118-10.228-2.752-10.228-2.752l.989 13.845c0 .001 5.804 2.02 10.815 2.626z" style="fill:rgb(255, 255, 255);animation-play-state:paused" ></path>
<path fill="#333" d="M62.674 58.325c1.577-2.393 2.502-5.251 2.502-8.325s-.925-5.932-2.502-8.325c.002-.028.012-.055.012-.084h-.063c-2.724-4.076-7.364-6.767-12.623-6.767s-9.899 2.691-12.623 6.767h-.063c0 .028.013.051.015.079A15.078 15.078 0 0 0 34.824 50c0 3.074.925 5.932 2.502 8.325-.002.028-.012.055-.012.084h.063c2.724 4.076 7.364 6.767 12.623 6.767s9.899-2.692 12.623-6.767h.063c0-.029-.01-.056-.012-.084zm-7.259 3.638v.149a13.15 13.15 0 0 1-4.467 1.118v-5.837c2.129.025 3.939.132 5.409.284-.325 2.576-.778 4.054-1.135 4.339a.347.347 0 0 1 .193-.053zm-11.773-4.286c1.47-.151 3.28-.258 5.409-.284v5.837a13.18 13.18 0 0 1-4.467-1.118v-.149a.34.34 0 0 1 .192.053c-.356-.284-.809-1.763-1.134-4.339zm.943-19.64v-.149a13.15 13.15 0 0 1 4.467-1.118v5.837c-2.129-.025-3.939-.132-5.409-.284.325-2.576.778-4.054 1.135-4.339a.347.347 0 0 1-.193.053zm11.773 4.286c-1.47.151-3.28.258-5.409.284V36.77a13.18 13.18 0 0 1 4.467 1.118v.149a.34.34 0 0 1-.192-.053c.356.284.809 1.763 1.134 4.339zm2.308 6.729a72.205 72.205 0 0 0-.208-5.072c1.239-.211 2.208-.483 2.902-.819a13.178 13.178 0 0 1 1.87 5.891h-4.564zm-1.898 0h-5.819v-4.549c2.164-.02 4.038-.109 5.606-.269.115 1.387.192 2.997.213 4.818zm-7.716 0h-5.819c.021-1.83.098-3.449.215-4.841a63.98 63.98 0 0 0 5.605.292v4.549zm-7.717 0h-4.566c.152-2.13.806-4.118 1.848-5.855.798.375 1.865.604 2.947.773a71.166 71.166 0 0 0-.229 5.082zm-.001 1.896c.016 1.69.075 3.433.208 5.072-1.239.211-2.208.483-2.902.819a13.178 13.178 0 0 1-1.87-5.891h4.564zm1.898 0h5.819v4.549c-2.164.02-4.038.109-5.606.269a68.278 68.278 0 0 1-.213-4.818zm7.716 4.549v-4.549h5.819a67.68 67.68 0 0 1-.213 4.818c-1.567-.16-3.442-.249-5.606-.269zm7.717-4.549h4.566a13.178 13.178 0 0 1-1.87 5.891c-.698-.337-1.675-.611-2.924-.822.13-1.551.207-3.271.228-5.069zm1.62-9.333c-.449.156-1.128.316-2.027.461a22.199 22.199 0 0 0-.535-2.857c.955.686 1.82 1.487 2.562 2.396zm-18.016-2.389a21.11 21.11 0 0 0-.351 1.749c-.056.35-.106.722-.155 1.105-.909-.146-1.596-.308-2.048-.465a13.369 13.369 0 0 1 2.554-2.389zm-2.554 19.159c.449-.156 1.128-.316 2.027-.461.135 1.052.311 2.018.535 2.857a13.359 13.359 0 0 1-2.562-2.396zm18.016 2.389a21.11 21.11 0 0 0 .351-1.749c.056-.35.106-.722.155-1.105.909.146 1.596.308 2.048.465a13.369 13.369 0 0 1-2.554 2.389z" style="fill:rgb(255, 255, 255);animation-play-state:paused" ></path>
<metadata xmlns:d="https://loading.io/stock/" style="animation-play-state:paused" ><d:name style="animation-play-state:paused" >protect</d:name>
<d:tags style="animation-play-state:paused" >environment,green,eco,global,earth,csr,protect,business</d:tags>
<d:license style="animation-play-state:paused" >pro</d:license>
<d:slug style="animation-play-state:paused" >etw540</d:slug></metadata></g><!-- generated by https://loading.io/ --></svg>